ffmpeg started on 2026-04-09 at 15:24:47
Report written to "D:\Convert\FFMetrics\reports\psnr_report-6.txt"
Log level: 32
Command line:
ffmpeg -hide_banner -nostdin -r 24000/1001 -i "F:\\Convert\\files\\[DC] Make Heroine ga Oosugiru - 07_Telegram_HEVC(320).mkv" -r 24000/1001 -i "F:\\Convert\\files\\[DC] Make Heroine ga Oosugiru - 07_Telegram.mp4" -lavfi "[0:v]settb=AVTB,setpts=PTS-STARTPTS,format=pix_fmts=yuv420p10le,fps=24000/1001,scale=1920:1080:flags=lanczos:param0=3:out_range=limited:out_color_matrix=bt709:out_chroma_loc=left,setsar=1/1,setdar=(1920/1080)*(1/1),colorspace=format=yuv420p10:range=tv:primaries=bt709:trc=bt709:space=bt709:fast=0[main];[1:v]settb=AVTB,setpts=PTS-STARTPTS,format=pix_fmts=yuv420p,fps=24000/1001,scale=1920:1080:flags=lanczos:param0=3:out_range=limited:out_color_matrix=bt709:out_chroma_loc=left,setsar=1/1,setdar=(1920/1080)*(1/1),colorspace=format=yuv420p:range=tv:primaries=bt709:trc=bt709:space=bt709:fast=0[ref];[main][ref]psnr=eof_action=endall:stats_file='D\\:/Convert/FFMetrics/logs/psnr_logfile-6.txt'" -f null -
Input #0, matroska,webm, from 'F:\Convert\files\[DC] Make Heroine ga Oosugiru - 07_Telegram_HEVC(320).mkv':
  Metadata:
    COMPATIBLE_BRANDS: isomiso2avc1mp41
    MAJOR_BRAND     : isom
    MINOR_VERSION   : 512
    ENCODER         : Lavf61.7.100
  Duration: 00:24:06.79, start: -0.021000, bitrate: 992 kb/s
  Stream #0:0: Video: hevc (Main 10), yuv420p10le(tv, bt709, progressive), 1920x1080 [SAR 1:1 DAR 16:9], 23.98 fps, 23.98 tbr, 1k tbn (default)
      Metadata:
        HANDLER_NAME    : VideoHandler
        VENDOR_ID       : [0][0][0][0]
        ENCODER         : Lavc61.19.100 libx265
        BPS             : 795500
        DURATION        : 00:24:06.569708333
        NUMBER_OF_FRAMES: 34683
        NUMBER_OF_BYTES : 143843251
        _STATISTICS_WRITING_APP: mkvpropedit v94.0 ('Initiate') 64-bit
        _STATISTICS_WRITING_DATE_UTC: 2026-04-09 10:31:14
        _STATISTICS_TAGS: BPS DURATION NUMBER_OF_FRAMES NUMBER_OF_BYTES
  Stream #0:1: Audio: aac (LC), 48000 Hz, stereo, fltp (default)
      Metadata:
        HANDLER_NAME    : SoundHandler
        VENDOR_ID       : [0][0][0][0]
        ENCODER         : Lavc61.19.100 aac
        BPS             : 193194
        DURATION        : 00:24:06.784000000
        NUMBER_OF_FRAMES: 67819
        NUMBER_OF_BYTES : 34938755
        _STATISTICS_WRITING_APP: mkvpropedit v94.0 ('Initiate') 64-bit
        _STATISTICS_WRITING_DATE_UTC: 2026-04-09 10:31:14
        _STATISTICS_TAGS: BPS DURATION NUMBER_OF_FRAMES NUMBER_OF_BYTES
Input #1, mov,mp4,m4a,3gp,3g2,mj2, from 'F:\Convert\files\[DC] Make Heroine ga Oosugiru - 07_Telegram.mp4':
  Metadata:
    major_brand     : isom
    minor_version   : 512
    compatible_brands: isomiso2avc1mp41
    encoder         : Lavf60.16.100
  Duration: 00:24:06.74, start: 0.000000, bitrate: 3764 kb/s
  Stream #1:0[0x1](und): Video: h264 (High) (avc1 / 0x31637661), yuv420p(tv, bt709, progressive), 1920x1080 [SAR 1:1 DAR 16:9], 3616 kb/s, 23.98 fps, 23.98 tbr, 24k tbn (default)
      Metadata:
        handler_name    : VideoHandler
        vendor_id       : [0][0][0][0]
        encoder         : Lavc60.31.102 h264_qsv
  Stream #1:1[0x2](und): Audio: aac (HE-AACv2) (mp4a / 0x6134706D), 48000 Hz, stereo, fltp, 144 kb/s (default)
      Metadata:
        handler_name    : SoundHandler
        vendor_id       : [0][0][0][0]
Stream mapping:
  Stream #0:0 (hevc) -> settb:default
  Stream #1:0 (h264) -> settb:default
  psnr:default -> Stream #0:0 (wrapped_avframe)
  Stream #0:1 -> #0:1 (aac (native) -> pcm_s16le (native))
Output #0, null, to 'pipe:':
  Metadata:
    COMPATIBLE_BRANDS: isomiso2avc1mp41
    MAJOR_BRAND     : isom
    MINOR_VERSION   : 512
    encoder         : Lavf61.7.100
  Stream #0:0: Video: wrapped_avframe, yuv420p10le(tv, bt709, progressive), 1920x1080 [SAR 1:1 DAR 16:9], q=2-31, 200 kb/s, 23.98 fps, 23.98 tbn
      Metadata:
        encoder         : Lavc61.19.100 wrapped_avframe
  Stream #0:1: Audio: pcm_s16le, 48000 Hz, stereo, s16, 1536 kb/s (default)
      Metadata:
        HANDLER_NAME    : SoundHandler
        VENDOR_ID       : [0][0][0][0]
        _STATISTICS_TAGS: BPS DURATION NUMBER_OF_FRAMES NUMBER_OF_BYTES
        BPS             : 193194
        DURATION        : 00:24:06.784000000
        NUMBER_OF_FRAMES: 67819
        NUMBER_OF_BYTES : 34938755
        _STATISTICS_WRITING_APP: mkvpropedit v94.0 ('Initiate') 64-bit
        _STATISTICS_WRITING_DATE_UTC: 2026-04-09 10:31:14
        encoder         : Lavc61.19.100 pcm_s16le
frame=  141 fps=0.0 q=-0.0 size=N/A time=00:00:05.88 bitrate=N/A speed=11.2x    frame=  326 fps=310 q=-0.0 size=N/A time=00:00:13.59 bitrate=N/A speed=12.9x    frame=  523 fps=334 q=-0.0 size=N/A time=00:00:21.81 bitrate=N/A speed=13.9x    frame=  709 fps=341 q=-0.0 size=N/A time=00:00:29.57 bitrate=N/A speed=14.2x    frame=  887 fps=343 q=-0.0 size=N/A time=00:00:36.99 bitrate=N/A speed=14.3x    frame= 1023 fps=328 q=-0.0 size=N/A time=00:00:42.66 bitrate=N/A speed=13.7x    frame= 1177 fps=324 q=-0.0 size=N/A time=00:00:49.09 bitrate=N/A speed=13.5x    frame= 1332 fps=322 q=-0.0 size=N/A time=00:00:55.55 bitrate=N/A speed=13.4x    frame= 1490 fps=320 q=-0.0 size=N/A time=00:01:02.14 bitrate=N/A speed=13.4x    frame= 1630 fps=315 q=-0.0 size=N/A time=00:01:07.98 bitrate=N/A speed=13.1x    frame= 1780 fps=313 q=-0.0 size=N/A time=00:01:14.24 bitrate=N/A speed=  13x    frame= 1929 fps=311 q=-0.0 size=N/A time=00:01:20.45 bitrate=N/A speed=  13x    frame= 2064 fps=307 q=-0.0 size=N/A time=00:01:26.08 bitrate=N/A speed=12.8x    frame= 2192 fps=303 q=-0.0 size=N/A time=00:01:31.42 bitrate=N/A speed=12.6x    frame= 2344 fps=302 q=-0.0 size=N/A time=00:01:37.76 bitrate=N/A speed=12.6x    frame= 2463 fps=298 q=-0.0 size=N/A time=00:01:42.72 bitrate=N/A speed=12.4x    frame= 2599 fps=296 q=-0.0 size=N/A time=00:01:48.39 bitrate=N/A speed=12.3x    frame= 2764 fps=297 q=-0.0 size=N/A time=00:01:55.28 bitrate=N/A speed=12.4x    frame= 2928 fps=298 q=-0.0 size=N/A time=00:02:02.12 bitrate=N/A speed=12.4x    frame= 3108 fps=301 q=-0.0 size=N/A time=00:02:09.62 bitrate=N/A speed=12.6x    frame= 3286 fps=303 q=-0.0 size=N/A time=00:02:17.05 bitrate=N/A speed=12.6x    frame= 3470 fps=305 q=-0.0 size=N/A time=00:02:24.72 bitrate=N/A speed=12.7x    frame= 3656 fps=308 q=-0.0 size=N/A time=00:02:32.48 bitrate=N/A speed=12.8x    frame= 3846 fps=310 q=-0.0 size=N/A time=00:02:40.41 bitrate=N/A speed=12.9x    frame= 4027 fps=312 q=-0.0 size=N/A time=00:02:47.95 bitrate=N/A speed=  13x    frame= 4219 fps=314 q=-0.0 size=N/A time=00:02:55.96 bitrate=N/A speed=13.1x    frame= 4395 fps=315 q=-0.0 size=N/A time=00:03:03.30 bitrate=N/A speed=13.2x    frame= 4580 fps=317 q=-0.0 size=N/A time=00:03:11.02 bitrate=N/A speed=13.2x    frame= 4762 fps=318 q=-0.0 size=N/A time=00:03:18.61 bitrate=N/A speed=13.3x    frame= 4944 fps=319 q=-0.0 size=N/A time=00:03:26.20 bitrate=N/A speed=13.3x    frame= 5124 fps=320 q=-0.0 size=N/A time=00:03:33.71 bitrate=N/A speed=13.3x    frame= 5315 fps=321 q=-0.0 size=N/A time=00:03:41.67 bitrate=N/A speed=13.4x    frame= 5494 fps=322 q=-0.0 size=N/A time=00:03:49.14 bitrate=N/A speed=13.4x    frame= 5682 fps=323 q=-0.0 size=N/A time=00:03:56.98 bitrate=N/A speed=13.5x    frame= 5855 fps=324 q=-0.0 size=N/A time=00:04:04.20 bitrate=N/A speed=13.5x    frame= 6034 fps=324 q=-0.0 size=N/A time=00:04:11.66 bitrate=N/A speed=13.5x    frame= 6225 fps=326 q=-0.0 size=N/A time=00:04:19.63 bitrate=N/A speed=13.6x    frame= 6406 fps=326 q=-0.0 size=N/A time=00:04:27.18 bitrate=N/A speed=13.6x    frame= 6589 fps=327 q=-0.0 size=N/A time=00:04:34.81 bitrate=N/A speed=13.6x    frame= 6764 fps=327 q=-0.0 size=N/A time=00:04:42.11 bitrate=N/A speed=13.7x    frame= 6958 fps=328 q=-0.0 size=N/A time=00:04:50.20 bitrate=N/A speed=13.7x    frame= 7127 fps=328 q=-0.0 size=N/A time=00:04:57.25 bitrate=N/A speed=13.7x    frame= 7289 fps=328 q=-0.0 size=N/A time=00:05:04.01 bitrate=N/A speed=13.7x    frame= 7452 fps=328 q=-0.0 size=N/A time=00:05:10.81 bitrate=N/A speed=13.7x    frame= 7628 fps=328 q=-0.0 size=N/A time=00:05:18.15 bitrate=N/A speed=13.7x    frame= 7795 fps=328 q=-0.0 size=N/A time=00:05:25.11 bitrate=N/A speed=13.7x    frame= 7984 fps=329 q=-0.0 size=N/A time=00:05:32.99 bitrate=N/A speed=13.7x    frame= 8159 fps=329 q=-0.0 size=N/A time=00:05:40.29 bitrate=N/A speed=13.7x    frame= 8350 fps=330 q=-0.0 size=N/A time=00:05:48.26 bitrate=N/A speed=13.8x    frame= 8529 fps=330 q=-0.0 size=N/A time=00:05:55.73 bitrate=N/A speed=13.8x    frame= 8714 fps=331 q=-0.0 size=N/A time=00:06:03.44 bitrate=N/A speed=13.8x    frame= 8889 fps=331 q=-0.0 size=N/A time=00:06:10.74 bitrate=N/A speed=13.8x    frame= 9060 fps=331 q=-0.0 size=N/A time=00:06:17.87 bitrate=N/A speed=13.8x    frame= 9238 fps=331 q=-0.0 size=N/A time=00:06:25.30 bitrate=N/A speed=13.8x    frame= 9425 fps=332 q=-0.0 size=N/A time=00:06:33.10 bitrate=N/A speed=13.8x    frame= 9611 fps=332 q=-0.0 size=N/A time=00:06:40.85 bitrate=N/A speed=13.9x    frame= 9794 fps=333 q=-0.0 size=N/A time=00:06:48.49 bitrate=N/A speed=13.9x    frame= 9977 fps=333 q=-0.0 size=N/A time=00:06:56.12 bitrate=N/A speed=13.9x    frame=10162 fps=333 q=-0.0 size=N/A time=00:07:03.84 bitrate=N/A speed=13.9x    frame=10333 fps=333 q=-0.0 size=N/A time=00:07:10.97 bitrate=N/A speed=13.9x    frame=10516 fps=334 q=-0.0 size=N/A time=00:07:18.60 bitrate=N/A speed=13.9x    frame=10683 fps=334 q=-0.0 size=N/A time=00:07:25.57 bitrate=N/A speed=13.9x    frame=10866 fps=334 q=-0.0 size=N/A time=00:07:33.20 bitrate=N/A speed=13.9x    frame=11045 fps=334 q=-0.0 size=N/A time=00:07:40.66 bitrate=N/A speed=13.9x    frame=11219 fps=334 q=-0.0 size=N/A time=00:07:47.92 bitrate=N/A speed=13.9x    frame=11394 fps=334 q=-0.0 size=N/A time=00:07:55.22 bitrate=N/A speed=13.9x    frame=11582 fps=335 q=-0.0 size=N/A time=00:08:03.06 bitrate=N/A speed=  14x    frame=11763 fps=335 q=-0.0 size=N/A time=00:08:10.61 bitrate=N/A speed=  14x    frame=11956 fps=335 q=-0.0 size=N/A time=00:08:18.66 bitrate=N/A speed=  14x    frame=12146 fps=336 q=-0.0 size=N/A time=00:08:26.58 bitrate=N/A speed=  14x    frame=12333 fps=336 q=-0.0 size=N/A time=00:08:34.38 bitrate=N/A speed=  14x    frame=12526 fps=337 q=-0.0 size=N/A time=00:08:42.43 bitrate=N/A speed=  14x    frame=12716 fps=337 q=-0.0 size=N/A time=00:08:50.36 bitrate=N/A speed=14.1x    frame=12898 fps=338 q=-0.0 size=N/A time=00:08:57.95 bitrate=N/A speed=14.1x    frame=13074 fps=338 q=-0.0 size=N/A time=00:09:05.29 bitrate=N/A speed=14.1x    frame=13263 fps=338 q=-0.0 size=N/A time=00:09:13.17 bitrate=N/A speed=14.1x    frame=13434 fps=338 q=-0.0 size=N/A time=00:09:20.30 bitrate=N/A speed=14.1x    frame=13628 fps=338 q=-0.0 size=N/A time=00:09:28.40 bitrate=N/A speed=14.1x    frame=13815 fps=339 q=-0.0 size=N/A time=00:09:36.20 bitrate=N/A speed=14.1x    frame=13998 fps=339 q=-0.0 size=N/A time=00:09:43.83 bitrate=N/A speed=14.1x    frame=14163 fps=339 q=-0.0 size=N/A time=00:09:50.71 bitrate=N/A speed=14.1x    frame=14352 fps=339 q=-0.0 size=N/A time=00:09:58.59 bitrate=N/A speed=14.1x    frame=14532 fps=339 q=-0.0 size=N/A time=00:10:06.10 bitrate=N/A speed=14.1x    frame=14718 fps=339 q=-0.0 size=N/A time=00:10:13.86 bitrate=N/A speed=14.2x    frame=14890 fps=339 q=-0.0 size=N/A time=00:10:21.03 bitrate=N/A speed=14.1x    frame=15064 fps=339 q=-0.0 size=N/A time=00:10:28.29 bitrate=N/A speed=14.1x    frame=15201 fps=338 q=-0.0 size=N/A time=00:10:34.00 bitrate=N/A speed=14.1x    frame=15393 fps=339 q=-0.0 size=N/A time=00:10:42.01 bitrate=N/A speed=14.1x    frame=15573 fps=339 q=-0.0 size=N/A time=00:10:49.52 bitrate=N/A speed=14.1x    frame=15753 fps=339 q=-0.0 size=N/A time=00:10:57.03 bitrate=N/A speed=14.1x    frame=15941 fps=339 q=-0.0 size=N/A time=00:11:04.87 bitrate=N/A speed=14.1x    frame=16125 fps=339 q=-0.0 size=N/A time=00:11:12.54 bitrate=N/A speed=14.2x    frame=16309 fps=340 q=-0.0 size=N/A time=00:11:20.22 bitrate=N/A speed=14.2x    frame=16495 fps=340 q=-0.0 size=N/A time=00:11:27.97 bitrate=N/A speed=14.2x    frame=16677 fps=340 q=-0.0 size=N/A time=00:11:35.56 bitrate=N/A speed=14.2x    frame=16864 fps=340 q=-0.0 size=N/A time=00:11:43.36 bitrate=N/A speed=14.2x    frame=17046 fps=340 q=-0.0 size=N/A time=00:11:50.96 bitrate=N/A speed=14.2x    frame=17225 fps=340 q=-0.0 size=N/A time=00:11:58.42 bitrate=N/A speed=14.2x    frame=17409 fps=341 q=-0.0 size=N/A time=00:12:06.10 bitrate=N/A speed=14.2x    frame=17596 fps=341 q=-0.0 size=N/A time=00:12:13.89 bitrate=N/A speed=14.2x    frame=17772 fps=341 q=-0.0 size=N/A time=00:12:21.24 bitrate=N/A speed=14.2x    frame=17952 fps=341 q=-0.0 size=N/A time=00:12:28.74 bitrate=N/A speed=14.2x    frame=18137 fps=341 q=-0.0 size=N/A time=00:12:36.46 bitrate=N/A speed=14.2x    frame=18311 fps=341 q=-0.0 size=N/A time=00:12:43.72 bitrate=N/A speed=14.2x    frame=18488 fps=341 q=-0.0 size=N/A time=00:12:51.10 bitrate=N/A speed=14.2x    frame=18678 fps=341 q=-0.0 size=N/A time=00:12:59.02 bitrate=N/A speed=14.2x    frame=18859 fps=341 q=-0.0 size=N/A time=00:13:06.57 bitrate=N/A speed=14.2x    frame=19039 fps=342 q=-0.0 size=N/A time=00:13:14.08 bitrate=N/A speed=14.2x    frame=19232 fps=342 q=-0.0 size=N/A time=00:13:22.13 bitrate=N/A speed=14.3x    frame=19424 fps=342 q=-0.0 size=N/A time=00:13:30.14 bitrate=N/A speed=14.3x    frame=19601 fps=342 q=-0.0 size=N/A time=00:13:37.52 bitrate=N/A speed=14.3x    frame=19779 fps=342 q=-0.0 size=N/A time=00:13:44.94 bitrate=N/A speed=14.3x    frame=19955 fps=342 q=-0.0 size=N/A time=00:13:52.28 bitrate=N/A speed=14.3x    frame=20136 fps=342 q=-0.0 size=N/A time=00:13:59.83 bitrate=N/A speed=14.3x    frame=20323 fps=342 q=-0.0 size=N/A time=00:14:07.63 bitrate=N/A speed=14.3x    frame=20503 fps=342 q=-0.0 size=N/A time=00:14:15.14 bitrate=N/A speed=14.3x    frame=20671 fps=342 q=-0.0 size=N/A time=00:14:22.15 bitrate=N/A speed=14.3x    frame=20855 fps=342 q=-0.0 size=N/A time=00:14:29.82 bitrate=N/A speed=14.3x    frame=21043 fps=343 q=-0.0 size=N/A time=00:14:37.66 bitrate=N/A speed=14.3x    frame=21226 fps=343 q=-0.0 size=N/A time=00:14:45.30 bitrate=N/A speed=14.3x    frame=21418 fps=343 q=-0.0 size=N/A time=00:14:53.30 bitrate=N/A speed=14.3x    frame=21604 fps=343 q=-0.0 size=N/A time=00:15:01.06 bitrate=N/A speed=14.3x    frame=21801 fps=343 q=-0.0 size=N/A time=00:15:09.28 bitrate=N/A speed=14.3x    frame=21982 fps=343 q=-0.0 size=N/A time=00:15:16.83 bitrate=N/A speed=14.3x    frame=22161 fps=344 q=-0.0 size=N/A time=00:15:24.29 bitrate=N/A speed=14.3x    frame=22355 fps=344 q=-0.0 size=N/A time=00:15:32.38 bitrate=N/A speed=14.3x    frame=22551 fps=344 q=-0.0 size=N/A time=00:15:40.56 bitrate=N/A speed=14.3x    frame=22729 fps=344 q=-0.0 size=N/A time=00:15:47.98 bitrate=N/A speed=14.4x    frame=22916 fps=344 q=-0.0 size=N/A time=00:15:55.78 bitrate=N/A speed=14.4x    frame=23105 fps=344 q=-0.0 size=N/A time=00:16:03.67 bitrate=N/A speed=14.4x    frame=23285 fps=344 q=-0.0 size=N/A time=00:16:11.17 bitrate=N/A speed=14.4x    frame=23471 fps=344 q=-0.0 size=N/A time=00:16:18.93 bitrate=N/A speed=14.4x    frame=23658 fps=345 q=-0.0 size=N/A time=00:16:26.73 bitrate=N/A speed=14.4x    frame=23849 fps=345 q=-0.0 size=N/A time=00:16:34.70 bitrate=N/A speed=14.4x    frame=24033 fps=345 q=-0.0 size=N/A time=00:16:42.37 bitrate=N/A speed=14.4x    frame=24213 fps=345 q=-0.0 size=N/A time=00:16:49.88 bitrate=N/A speed=14.4x    frame=24402 fps=345 q=-0.0 size=N/A time=00:16:57.76 bitrate=N/A speed=14.4x    frame=24589 fps=345 q=-0.0 size=N/A time=00:17:05.56 bitrate=N/A speed=14.4x    frame=24772 fps=345 q=-0.0 size=N/A time=00:17:13.19 bitrate=N/A speed=14.4x    frame=24957 fps=345 q=-0.0 size=N/A time=00:17:20.91 bitrate=N/A speed=14.4x    frame=25138 fps=345 q=-0.0 size=N/A time=00:17:28.46 bitrate=N/A speed=14.4x    frame=25318 fps=345 q=-0.0 size=N/A time=00:17:35.97 bitrate=N/A speed=14.4x    frame=25502 fps=346 q=-0.0 size=N/A time=00:17:43.64 bitrate=N/A speed=14.4x    frame=25674 fps=345 q=-0.0 size=N/A time=00:17:50.81 bitrate=N/A speed=14.4x    frame=25863 fps=346 q=-0.0 size=N/A time=00:17:58.70 bitrate=N/A speed=14.4x    frame=26048 fps=346 q=-0.0 size=N/A time=00:18:06.41 bitrate=N/A speed=14.4x    frame=26227 fps=346 q=-0.0 size=N/A time=00:18:13.88 bitrate=N/A speed=14.4x    frame=26416 fps=346 q=-0.0 size=N/A time=00:18:21.76 bitrate=N/A speed=14.4x    frame=26599 fps=346 q=-0.0 size=N/A time=00:18:29.39 bitrate=N/A speed=14.4x    frame=26781 fps=346 q=-0.0 size=N/A time=00:18:36.99 bitrate=N/A speed=14.4x    frame=26953 fps=346 q=-0.0 size=N/A time=00:18:44.16 bitrate=N/A speed=14.4x    frame=27133 fps=346 q=-0.0 size=N/A time=00:18:51.67 bitrate=N/A speed=14.4x    frame=27307 fps=346 q=-0.0 size=N/A time=00:18:58.92 bitrate=N/A speed=14.4x    frame=27497 fps=346 q=-0.0 size=N/A time=00:19:06.85 bitrate=N/A speed=14.4x    frame=27680 fps=346 q=-0.0 size=N/A time=00:19:14.48 bitrate=N/A speed=14.4x    frame=27873 fps=346 q=-0.0 size=N/A time=00:19:22.53 bitrate=N/A speed=14.4x    frame=28061 fps=346 q=-0.0 size=N/A time=00:19:30.37 bitrate=N/A speed=14.4x    frame=28244 fps=346 q=-0.0 size=N/A time=00:19:38.01 bitrate=N/A speed=14.4x    frame=28424 fps=346 q=-0.0 size=N/A time=00:19:45.51 bitrate=N/A speed=14.4x    frame=28621 fps=346 q=-0.0 size=N/A time=00:19:53.73 bitrate=N/A speed=14.5x    frame=28793 fps=346 q=-0.0 size=N/A time=00:20:00.90 bitrate=N/A speed=14.4x    frame=28958 fps=346 q=-0.0 size=N/A time=00:20:07.78 bitrate=N/A speed=14.4x    frame=29129 fps=346 q=-0.0 size=N/A time=00:20:14.92 bitrate=N/A speed=14.4x    frame=29310 fps=346 q=-0.0 size=N/A time=00:20:22.47 bitrate=N/A speed=14.4x    frame=29478 fps=346 q=-0.0 size=N/A time=00:20:29.47 bitrate=N/A speed=14.4x    frame=29650 fps=346 q=-0.0 size=N/A time=00:20:36.65 bitrate=N/A speed=14.4x    frame=29816 fps=346 q=-0.0 size=N/A time=00:20:43.57 bitrate=N/A speed=14.4x    frame=29987 fps=346 q=-0.0 size=N/A time=00:20:50.70 bitrate=N/A speed=14.4x    frame=30157 fps=346 q=-0.0 size=N/A time=00:20:57.79 bitrate=N/A speed=14.4x    frame=30332 fps=346 q=-0.0 size=N/A time=00:21:05.09 bitrate=N/A speed=14.4x    frame=30532 fps=346 q=-0.0 size=N/A time=00:21:13.43 bitrate=N/A speed=14.4x    frame=30718 fps=346 q=-0.0 size=N/A time=00:21:21.19 bitrate=N/A speed=14.4x    frame=30891 fps=346 q=-0.0 size=N/A time=00:21:28.41 bitrate=N/A speed=14.4x    frame=31061 fps=346 q=-0.0 size=N/A time=00:21:35.50 bitrate=N/A speed=14.4x    frame=31243 fps=346 q=-0.0 size=N/A time=00:21:43.09 bitrate=N/A speed=14.4x    frame=31421 fps=346 q=-0.0 size=N/A time=00:21:50.51 bitrate=N/A speed=14.4x    frame=31607 fps=346 q=-0.0 size=N/A time=00:21:58.27 bitrate=N/A speed=14.4x    frame=31789 fps=346 q=-0.0 size=N/A time=00:22:05.86 bitrate=N/A speed=14.4x    frame=31962 fps=346 q=-0.0 size=N/A time=00:22:13.08 bitrate=N/A speed=14.4x    frame=32142 fps=346 q=-0.0 size=N/A time=00:22:20.58 bitrate=N/A speed=14.4x    frame=32336 fps=346 q=-0.0 size=N/A time=00:22:28.68 bitrate=N/A speed=14.4x    frame=32519 fps=346 q=-0.0 size=N/A time=00:22:36.31 bitrate=N/A speed=14.4x    frame=32678 fps=346 q=-0.0 size=N/A time=00:22:42.94 bitrate=N/A speed=14.4x    frame=32835 fps=346 q=-0.0 size=N/A time=00:22:49.49 bitrate=N/A speed=14.4x    frame=33003 fps=346 q=-0.0 size=N/A time=00:22:56.50 bitrate=N/A speed=14.4x    frame=33183 fps=346 q=-0.0 size=N/A time=00:23:04.00 bitrate=N/A speed=14.4x    frame=33357 fps=346 q=-0.0 size=N/A time=00:23:11.26 bitrate=N/A speed=14.4x    frame=33517 fps=345 q=-0.0 size=N/A time=00:23:17.93 bitrate=N/A speed=14.4x    frame=33656 fps=345 q=-0.0 size=N/A time=00:23:23.73 bitrate=N/A speed=14.4x    frame=33791 fps=345 q=-0.0 size=N/A time=00:23:29.36 bitrate=N/A speed=14.4x    frame=33913 fps=344 q=-0.0 size=N/A time=00:23:34.45 bitrate=N/A speed=14.3x    frame=34070 fps=344 q=-0.0 size=N/A time=00:23:41.00 bitrate=N/A speed=14.3x    frame=34216 fps=343 q=-0.0 size=N/A time=00:23:47.09 bitrate=N/A speed=14.3x    frame=34351 fps=343 q=-0.0 size=N/A time=00:23:52.72 bitrate=N/A speed=14.3x    frame=34480 fps=343 q=-0.0 size=N/A time=00:23:58.10 bitrate=N/A speed=14.3x    frame=34655 fps=343 q=-0.0 size=N/A time=00:24:05.40 bitrate=N/A speed=14.3x    [Parsed_psnr_16 @ 00000204b2504100] PSNR y:49.085418 u:50.361716 v:50.410413 average:49.477205 min:37.990444 max:inf
[out#0/null @ 00000204a57adec0] video:14903KiB audio:271276KiB subtitle:0KiB other streams:0KiB global headers:0KiB muxing overhead: unknown
frame=34683 fps=343 q=-0.0 Lsize=N/A time=00:24:06.57 bitrate=N/A speed=14.3x    
